Coordinates
version=1
nRows=14
nColumns=36
inDegrees=yes

Units are S.I. units (second, meters, Newtons, ...)
If the header above contains a line with 'inDegrees', this indicates whether rotational values are in degrees (yes) or radians (no).

endheader
time	pelvis_tilt	pelvis_list	pelvis_rotation	pelvis_tx	pelvis_ty	pelvis_tz	hip_flexion_r	hip_adduction_r	hip_rotation_r	knee_angle_r	knee_angle_r_beta	ankle_angle_r	subtalar_angle_r	mtp_angle_r	hip_flexion_l	hip_adduction_l	hip_rotation_l	knee_angle_l	knee_angle_l_beta	ankle_angle_l	subtalar_angle_l	mtp_angle_l	lumbar_extension	lumbar_bending	lumbar_rotation	arm_flex_r	arm_add_r	arm_rot_r	elbow_flex_r	pro_sup_r	arm_flex_l	arm_add_l	arm_rot_l	elbow_flex_l	pro_sup_l
      0.68000000	      7.93926109	      2.06525665	     -3.85906111	      0.75240449	      1.04288024	     -0.21105900	     -6.65293995	     -4.74203320	     -5.14609604	     53.54046877	      0.93445746	    -10.55989759	      3.26356902	     -7.20554447	      6.25818073	      6.67770887	      3.65710226	      4.14481151	      0.07234061	     -7.87232012	     -3.85485721	     -7.20554447	    -11.08553912	     -3.76768423	     -0.78949749	      3.10393294	    -10.81753469	      3.68076128	     51.01385939	    103.35020280	    -15.52082552	     -7.49065035	      9.03515171	     32.94807767	     95.91693220
      0.69000000	      8.03184104	      2.60636245	     -3.78930130	      0.76432800	      1.04423818	     -0.21175830	     -4.54969340	     -5.66614676	     -5.18016189	     57.18103933	      0.99799741	    -13.07866592	      2.13481106	     -7.20934952	      5.33332748	      7.37482219	      3.96042725	      3.95628506	      0.06905020	     -7.23355721	     -3.80201821	     -7.20934952	    -11.20150207	     -4.42440896	     -1.18286466	      2.61592768	    -10.48577779	      3.61214940	     50.37213113	    103.35599499	    -14.63414301	     -7.97476055	      9.02117283	     33.40671812	     95.97501578
      0.70000000	      7.96189086	      3.00164264	     -3.74902655	      0.77608401	      1.04552315	     -0.21227249	     -2.27098779	     -6.27364821	     -4.98803446	     60.54224151	      1.05666145	    -15.55034938	      0.33609488	     -7.21371585	      4.52685367	      7.88107040	      4.19109423	      3.67478639	      0.06413712	     -6.62082888	     -3.68287382	     -7.21371585	    -11.12630339	     -4.91533970	     -1.49965525	      2.14139873	    -10.14475279	      3.48182661	     49.57303585	    103.35537371	    -13.73517755	     -8.48909813	      9.07577031	     33.87900811	     96.03635979
      0.71000000	      7.91338061	      3.16985265	     -3.68902866	      0.78760381	      1.04701663	     -0.21272358	     -0.09690541	     -6.50899889	     -4.75343283	     63.49590886	      1.10821267	    -17.74413101	     -1.90054855	     -7.22169140	      3.66543246	      8.13281929	      4.31959251	      3.34509472	      0.05838292	     -5.98070768	     -3.40593020	     -7.22169140	    -11.14564429	     -5.13205033	     -1.83405761	      1.71564062	     -9.82067435	      3.32743966	     48.71631219	    103.34210764	    -12.74308603	     -8.96386980	      9.29012177	     34.20462918	     96.04658916
      0.72000000	      7.97760428	      3.28225111	     -3.65736852	      0.79927363	      1.04873810	     -0.21318595	      1.83424844	     -6.67919886	     -4.48957545	     66.10637286	      1.15377386	    -18.45736585	     -3.16927482	     -7.22528415	      2.52391757	      8.32846302	      4.59439839	      2.75525626	      0.04808829	     -5.29033777	     -3.08725028	     -7.22528415	    -11.25511902	     -5.27499003	     -2.07030035	      1.21024967	     -9.58485941	      3.28510879	     47.89643208	    103.27447475	    -11.71291898	     -9.38203356	      9.34600803	     34.53490913	     96.03375890
      0.73000000	      7.86448305	      3.20834716	     -3.55608425	      0.81075756	      1.05038087	     -0.21357718	      3.85529992	     -6.51314241	     -4.31351206	     68.28570193	      1.19181033	    -19.07826017	     -5.41093999	     -7.23261233	      1.66224559	      8.28616535	      4.65340871	      2.32632624	      0.04060205	     -4.62987529	     -2.59459371	     -7.23261233	    -11.16597131	     -5.18099120	     -2.35464912	      0.80735731	     -9.28173378	      3.14616075	     46.78083717	    103.30149821	    -10.61853728	     -9.82960943	      9.70264578	     34.75984484	     96.04011816
      0.74000000	      7.85338703	      3.05613012	     -3.41191587	      0.82230440	      1.05221781	     -0.21400029	      5.61251245	     -6.22708357	     -4.17968347	     70.06472800	      1.22286019	    -18.43996100	     -7.06144949	     -7.23846459	      0.65687863	      8.16287329	      4.81836873	      1.86656652	      0.03257773	     -3.88360408	     -2.04970227	     -7.23846459	    -11.19831784	     -5.00037185	     -2.63417908	      0.34773648	     -9.06408174	      3.06126120	     45.72273945	    103.31220822	     -9.49923290	    -10.25243428	      9.91401119	     34.98642427	     96.02536627
      0.75000000	      7.89200735	      2.81214931	     -3.25105716	      0.83375339	      1.05411922	     -0.21439085	      7.20309814	     -5.77419677	     -4.05098454	     71.44734881	      1.24699148	    -17.08825551	     -8.49341263	     -7.24092649	     -0.39194224	      7.93372902	      5.08154911	      1.42945466	      0.02494869	     -3.21994586	     -1.68972169	     -7.24092649	    -11.30982384	     -4.70402971	     -2.90604180	     -0.15961697	     -8.90359354	      3.04389581	     44.82464255	    103.24779218	     -8.37602385	    -10.60323323	      9.91229408	     35.31047591	     96.00790442
      0.76000000	      7.76536670	      2.56573947	     -2.94483728	      0.84508785	      1.05575760	     -0.21491131	      8.87879122	     -5.31659213	     -4.11592400	     72.49394334	      1.26525800	    -15.38114372	     -9.91636554	     -7.24747177	     -1.09539509	      7.67331855	      5.10443694	      1.28136234	      0.02236399	     -2.23463416	     -0.83512521	     -7.24747177	    -11.20997198	     -4.37105300	     -3.39303530	     -0.46499014	     -8.65139277	      2.93349678	     43.39280044	    103.27381223	     -7.25447653	    -11.02249141	     10.22835132	     35.50027380	     95.99907402
      0.77000000	      7.74748245	      2.26480486	     -2.63158464	      0.85637775	      1.05744060	     -0.21536149	     10.31645013	     -4.72340426	     -4.14622061	     73.11339657	      1.27606950	    -13.39903346	    -11.28755641	     -7.25002769	     -1.92363628	      7.36033238	      5.33448379	      1.10480213	      0.01928243	     -1.58118698	     -0.42647804	     -7.25002769	    -11.25442068	     -3.98442774	     -3.70636573	     -1.01103303	     -8.53655579	      2.93320433	     42.48398967	    103.21287919	     -6.07722973	    -11.36873752	     10.17499292	     35.89975655	     95.98289490
      0.78000000	      7.65437505	      2.02417131	     -2.19956872	      0.86747555	      1.05884990	     -0.21596274	     11.77126532	     -4.22957033	     -4.28891646	     73.43583644	      1.28169713	    -11.25342132	    -12.27842704	     -7.25403427	     -2.56313688	      7.09957443	      5.55446559	      1.09171174	      0.01905396	     -0.62961100	      0.19894726	     -7.25403427	    -11.22242960	     -3.63546286	     -4.27594704	     -1.35237200	     -8.32643390	      2.83226066	     41.22509726	    103.15504677	     -4.94710113	    -11.75224567	     10.21207431	     36.23014641	     95.96560401
      0.79000000	      7.56699030	      1.74840753	     -1.75224950	      0.87845963	      1.06012497	     -0.21654195	     13.13019836	     -3.67614473	     -4.42479603	     73.36555457	      1.28047048	     -9.41701359	    -13.26130101	     -7.25628537	     -3.16994626	      6.79932200	      5.79195437	      1.09566611	      0.01912298	     -0.05749543	      0.58468646	     -7.25628537	    -11.21567046	     -3.23930935	     -4.65845034	     -1.87016266	     -8.24258313	      2.80848617	     40.26887749	    103.06897900	     -3.71989793	    -12.07459419	     10.10823754	     36.72238171	     95.95360227
      0.80000000	      7.48909094	      1.55039379	     -1.19803009	      0.88933126	      1.06121276	     -0.21719797	     14.38982789	     -3.26816487	     -4.64480923	     73.00600926	      1.27419524	     -7.39164931	    -13.57408401	     -7.26242539	     -3.70464575	      6.56818308	      5.99817797	      1.24266162	      0.02168854	      1.06160016	      1.43643832	     -7.26242539	    -11.20146996	     -2.92620932	     -5.39515583	     -2.04635178	     -8.00049687	      2.72831186	     38.75851551	    103.06495878	     -2.60498444	    -12.46554701	     10.05158392	     37.11504855	     95.94883959
      0.81000000	      7.42366880	      1.35442315	     -0.67338764	      0.90009758	      1.06211007	     -0.21779872	     15.56618921	     -2.85784370	     -4.83258414	     72.31448052	      1.26212578	     -5.86828393	    -14.14707590	     -7.26736450	     -4.23375768	      6.34293833	      6.19195013	      1.38796766	      0.02422461	      1.85396043	      1.95329688	     -7.26736450	    -11.25487989	     -2.60352901	     -5.94162581	     -2.43169686	     -7.88465850	      2.70915467	     37.72662437	    103.05954933	     -1.41991303	    -12.78617891	      9.82649006	     37.62594006	     95.94804351
